# xmcd
# 
# Track frame offsets:
#     150
#     10609
#     29556
#     47692
#     59398
#     77501
#     98171
#     116294
#     133859
#     155054
# 
# Disc length: 2324
# 
# Revision: 0
# Processed by: cddbd v1.5.2PL0 Copyright (c) Steve Scherf et al.
# Submitted via: fre:ac v1.0.31
# 
DISCID=7809120a
DTITLE=THE ORAL CIGARETTES - Kisses and Kills
DYEAR=2018
DGENRE=J-Rock
TTITLE0=もういいかい？
TTITLE1=BLACK MEMORY
TTITLE2=PSYCHOPATH
TTITLE3=Ladies and Gentlemen
TTITLE4=What you want
TTITLE5=トナリアウ
TTITLE6=リブロックアート
TTITLE7=容姿端麗な嘘
TTITLE8=ONE'S AGAIN
TTITLE9=Rel
EXTD=
EXTT0=
EXTT1=
EXTT2=
EXTT3=
EXTT4=
EXTT5=
EXTT6=
EXTT7=
EXTT8=
EXTT9=
PLAYORDER=
